<svg id="visual" viewBox="0 0 540 960" width="540" height="960" xmlns="http://www.w3.org/2000/svg" xmlns:xlink="http://www.w3.org/1999/xlink" version="1.1"><rect x="0" y="0" width="540" height="960" fill="#001220"></rect><path d="M0 498L18 489.3C36 480.7 72 463.3 108 491.5C144 519.7 180 593.3 216 623.2C252 653 288 639 324 641.2C360 643.3 396 661.7 432 666.5C468 671.3 504 662.7 522 658.3L540 654L540 961L522 961C504 961 468 961 432 961C396 961 360 961 324 961C288 961 252 961 216 961C180 961 144 961 108 961C72 961 36 961 18 961L0 961Z" fill="#c62368"></path><path d="M0 531L18 509.7C36 488.3 72 445.7 108 449.8C144 454 180 505 216 524.8C252 544.7 288 533.3 324 550.7C360 568 396 614 432 590.7C468 567.3 504 474.7 522 428.3L540 382L540 961L522 961C504 961 468 961 432 961C396 961 360 961 324 961C288 961 252 961 216 961C180 961 144 961 108 961C72 961 36 961 18 961L0 961Z" fill="#d23467"></path><path d="M0 653L18 634.8C36 616.7 72 580.3 108 566.5C144 552.7 180 561.3 216 553.2C252 545 288 520 324 539.5C360 559 396 623 432 629.3C468 635.7 504 584.3 522 558.7L540 533L540 961L522 961C504 961 468 961 432 961C396 961 360 961 324 961C288 961 252 961 216 961C180 961 144 961 108 961C72 961 36 961 18 961L0 961Z" fill="#de4467"></path><path d="M0 750L18 751.5C36 753 72 756 108 736.7C144 717.3 180 675.7 216 653.5C252 631.3 288 628.7 324 658.2C360 687.7 396 749.3 432 772.3C468 795.3 504 779.7 522 771.8L540 764L540 961L522 961C504 961 468 961 432 961C396 961 360 961 324 961C288 961 252 961 216 961C180 961 144 961 108 961C72 961 36 961 18 961L0 961Z" fill="#e85467"></path><path d="M0 719L18 722.2C36 725.3 72 731.7 108 730C144 728.3 180 718.7 216 734.5C252 750.3 288 791.7 324 803C360 814.3 396 795.7 432 796.5C468 797.3 504 817.7 522 827.8L540 838L540 961L522 961C504 961 468 961 432 961C396 961 360 961 324 961C288 961 252 961 216 961C180 961 144 961 108 961C72 961 36 961 18 961L0 961Z" fill="#f16367"></path><path d="M0 824L18 821.8C36 819.7 72 815.3 108 821C144 826.7 180 842.3 216 850.3C252 858.3 288 858.7 324 856.7C360 854.7 396 850.3 432 837C468 823.7 504 801.3 522 790.2L540 779L540 961L522 961C504 961 468 961 432 961C396 961 360 961 324 961C288 961 252 961 216 961C180 961 144 961 108 961C72 961 36 961 18 961L0 961Z" fill="#fa7268"></path></svg>